<mxfile host="app.diagrams.net" agent="Mozilla/5.0 (Macintosh; Intel Mac OS X 10.15; rv:136.0) Gecko/20100101 Firefox/136.0" version="26.1.0">
  <diagram name="Page-1" id="9_Csyg9fa_38ZsKfDVKL">
    <mxGraphModel dx="1166" dy="764" grid="0" gridSize="10" guides="1" tooltips="1" connect="1" arrows="1" fold="1" page="1" pageScale="1" pageWidth="827" pageHeight="1169" math="0" shadow="0">
      <root>
        <mxCell id="0" />
        <mxCell id="1" parent="0" />
        <mxCell id="1o7OQgsqpj5E0O2IyzL--1" value="" style="whiteSpace=wrap;html=1;aspect=fixed;fontFamily=CMU Serif;fontSource=https%3A%2F%2Fcdn.jsdelivr.net%2Fgh%2Fbitmaks%2Fcm-web-fonts%40latest%2Ffont%2FSerif%2Fcmunrm.woff;fillColor=#000000;" parent="1" vertex="1">
          <mxGeometry x="94" y="640" width="80" height="80" as="geometry" />
        </mxCell>
        <mxCell id="1o7OQgsqpj5E0O2IyzL--2" value="" style="whiteSpace=wrap;html=1;aspect=fixed;fillColor=#FFFFFF;fontFamily=CMU Serif;fontSource=https%3A%2F%2Fcdn.jsdelivr.net%2Fgh%2Fbitmaks%2Fcm-web-fonts%40latest%2Ffont%2FSerif%2Fcmunrm.woff;" parent="1" vertex="1">
          <mxGeometry x="174" y="640" width="80" height="80" as="geometry" />
        </mxCell>
        <mxCell id="1o7OQgsqpj5E0O2IyzL--3" value="" style="whiteSpace=wrap;html=1;aspect=fixed;fontFamily=CMU Serif;fontSource=https%3A%2F%2Fcdn.jsdelivr.net%2Fgh%2Fbitmaks%2Fcm-web-fonts%40latest%2Ffont%2FSerif%2Fcmunrm.woff;fillColor=#000000;" parent="1" vertex="1">
          <mxGeometry x="254" y="640" width="80" height="80" as="geometry" />
        </mxCell>
        <mxCell id="1o7OQgsqpj5E0O2IyzL--4" value="" style="whiteSpace=wrap;html=1;aspect=fixed;fillColor=#FFFFFF;fontFamily=CMU Serif;fontSource=https%3A%2F%2Fcdn.jsdelivr.net%2Fgh%2Fbitmaks%2Fcm-web-fonts%40latest%2Ffont%2FSerif%2Fcmunrm.woff;" parent="1" vertex="1">
          <mxGeometry x="334" y="640" width="80" height="80" as="geometry" />
        </mxCell>
        <mxCell id="1o7OQgsqpj5E0O2IyzL--5" value="" style="whiteSpace=wrap;html=1;aspect=fixed;fontFamily=CMU Serif;fontSource=https%3A%2F%2Fcdn.jsdelivr.net%2Fgh%2Fbitmaks%2Fcm-web-fonts%40latest%2Ffont%2FSerif%2Fcmunrm.woff;fillColor=#000000;" parent="1" vertex="1">
          <mxGeometry x="414" y="640" width="80" height="80" as="geometry" />
        </mxCell>
        <mxCell id="1o7OQgsqpj5E0O2IyzL--6" value="" style="whiteSpace=wrap;html=1;aspect=fixed;fillColor=#FFFFFF;fontFamily=CMU Serif;fontSource=https%3A%2F%2Fcdn.jsdelivr.net%2Fgh%2Fbitmaks%2Fcm-web-fonts%40latest%2Ffont%2FSerif%2Fcmunrm.woff;" parent="1" vertex="1">
          <mxGeometry x="494" y="640" width="80" height="80" as="geometry" />
        </mxCell>
        <mxCell id="1o7OQgsqpj5E0O2IyzL--7" value="" style="whiteSpace=wrap;html=1;aspect=fixed;fontFamily=CMU Serif;fontSource=https%3A%2F%2Fcdn.jsdelivr.net%2Fgh%2Fbitmaks%2Fcm-web-fonts%40latest%2Ffont%2FSerif%2Fcmunrm.woff;fillColor=#000000;" parent="1" vertex="1">
          <mxGeometry x="574" y="640" width="80" height="80" as="geometry" />
        </mxCell>
        <mxCell id="1o7OQgsqpj5E0O2IyzL--8" value="" style="whiteSpace=wrap;html=1;aspect=fixed;fillColor=#FFFFFF;fontFamily=CMU Serif;fontSource=https%3A%2F%2Fcdn.jsdelivr.net%2Fgh%2Fbitmaks%2Fcm-web-fonts%40latest%2Ffont%2FSerif%2Fcmunrm.woff;" parent="1" vertex="1">
          <mxGeometry x="654" y="640" width="80" height="80" as="geometry" />
        </mxCell>
        <mxCell id="1o7OQgsqpj5E0O2IyzL--9" value="" style="whiteSpace=wrap;html=1;aspect=fixed;fontFamily=CMU Serif;fontSource=https%3A%2F%2Fcdn.jsdelivr.net%2Fgh%2Fbitmaks%2Fcm-web-fonts%40latest%2Ffont%2FSerif%2Fcmunrm.woff;fillColor=#000000;" parent="1" vertex="1">
          <mxGeometry x="174" y="560" width="80" height="80" as="geometry" />
        </mxCell>
        <mxCell id="1o7OQgsqpj5E0O2IyzL--10" value="" style="whiteSpace=wrap;html=1;aspect=fixed;fillColor=#FFFFFF;fontFamily=CMU Serif;fontSource=https%3A%2F%2Fcdn.jsdelivr.net%2Fgh%2Fbitmaks%2Fcm-web-fonts%40latest%2Ffont%2FSerif%2Fcmunrm.woff;" parent="1" vertex="1">
          <mxGeometry x="254" y="560" width="80" height="80" as="geometry" />
        </mxCell>
        <mxCell id="1o7OQgsqpj5E0O2IyzL--11" value="" style="whiteSpace=wrap;html=1;aspect=fixed;fontFamily=CMU Serif;fontSource=https%3A%2F%2Fcdn.jsdelivr.net%2Fgh%2Fbitmaks%2Fcm-web-fonts%40latest%2Ffont%2FSerif%2Fcmunrm.woff;fillColor=#000000;" parent="1" vertex="1">
          <mxGeometry x="334" y="560" width="80" height="80" as="geometry" />
        </mxCell>
        <mxCell id="1o7OQgsqpj5E0O2IyzL--12" value="" style="whiteSpace=wrap;html=1;aspect=fixed;fillColor=#FFFFFF;fontFamily=CMU Serif;fontSource=https%3A%2F%2Fcdn.jsdelivr.net%2Fgh%2Fbitmaks%2Fcm-web-fonts%40latest%2Ffont%2FSerif%2Fcmunrm.woff;" parent="1" vertex="1">
          <mxGeometry x="414" y="560" width="80" height="80" as="geometry" />
        </mxCell>
        <mxCell id="1o7OQgsqpj5E0O2IyzL--13" value="" style="whiteSpace=wrap;html=1;aspect=fixed;fontFamily=CMU Serif;fontSource=https%3A%2F%2Fcdn.jsdelivr.net%2Fgh%2Fbitmaks%2Fcm-web-fonts%40latest%2Ffont%2FSerif%2Fcmunrm.woff;fillColor=#000000;" parent="1" vertex="1">
          <mxGeometry x="494" y="560" width="80" height="80" as="geometry" />
        </mxCell>
        <mxCell id="1o7OQgsqpj5E0O2IyzL--14" value="" style="whiteSpace=wrap;html=1;aspect=fixed;fillColor=#FFFFFF;fontFamily=CMU Serif;fontSource=https%3A%2F%2Fcdn.jsdelivr.net%2Fgh%2Fbitmaks%2Fcm-web-fonts%40latest%2Ffont%2FSerif%2Fcmunrm.woff;" parent="1" vertex="1">
          <mxGeometry x="574" y="560" width="80" height="80" as="geometry" />
        </mxCell>
        <mxCell id="1o7OQgsqpj5E0O2IyzL--15" value="" style="whiteSpace=wrap;html=1;aspect=fixed;fontFamily=CMU Serif;fontSource=https%3A%2F%2Fcdn.jsdelivr.net%2Fgh%2Fbitmaks%2Fcm-web-fonts%40latest%2Ffont%2FSerif%2Fcmunrm.woff;fillColor=#000000;" parent="1" vertex="1">
          <mxGeometry x="654" y="560" width="80" height="80" as="geometry" />
        </mxCell>
        <mxCell id="1o7OQgsqpj5E0O2IyzL--16" value="" style="whiteSpace=wrap;html=1;aspect=fixed;fillColor=#FFFFFF;fontFamily=CMU Serif;fontSource=https%3A%2F%2Fcdn.jsdelivr.net%2Fgh%2Fbitmaks%2Fcm-web-fonts%40latest%2Ffont%2FSerif%2Fcmunrm.woff;" parent="1" vertex="1">
          <mxGeometry x="94" y="560" width="80" height="80" as="geometry" />
        </mxCell>
        <mxCell id="1o7OQgsqpj5E0O2IyzL--17" value="A" style="text;html=1;align=center;verticalAlign=middle;resizable=0;points=[];autosize=1;strokeColor=none;fillColor=none;fontFamily=CMU Serif;fontSource=https%3A%2F%2Fcdn.jsdelivr.net%2Fgh%2Fbitmaks%2Fcm-web-fonts%40latest%2Ffont%2FSerif%2Fcmunrm.woff;" parent="1" vertex="1">
          <mxGeometry x="119" y="720" width="30" height="30" as="geometry" />
        </mxCell>
        <mxCell id="1o7OQgsqpj5E0O2IyzL--18" value="B" style="text;html=1;align=center;verticalAlign=middle;resizable=0;points=[];autosize=1;strokeColor=none;fillColor=none;fontFamily=CMU Serif;fontSource=https%3A%2F%2Fcdn.jsdelivr.net%2Fgh%2Fbitmaks%2Fcm-web-fonts%40latest%2Ffont%2FSerif%2Fcmunrm.woff;" parent="1" vertex="1">
          <mxGeometry x="199" y="720" width="30" height="30" as="geometry" />
        </mxCell>
        <mxCell id="1o7OQgsqpj5E0O2IyzL--19" value="C" style="text;html=1;align=center;verticalAlign=middle;resizable=0;points=[];autosize=1;strokeColor=none;fillColor=none;fontFamily=CMU Serif;fontSource=https%3A%2F%2Fcdn.jsdelivr.net%2Fgh%2Fbitmaks%2Fcm-web-fonts%40latest%2Ffont%2FSerif%2Fcmunrm.woff;" parent="1" vertex="1">
          <mxGeometry x="278" y="720" width="30" height="30" as="geometry" />
        </mxCell>
        <mxCell id="1o7OQgsqpj5E0O2IyzL--20" value="D" style="text;html=1;align=center;verticalAlign=middle;resizable=0;points=[];autosize=1;strokeColor=none;fillColor=none;fontFamily=CMU Serif;fontSource=https%3A%2F%2Fcdn.jsdelivr.net%2Fgh%2Fbitmaks%2Fcm-web-fonts%40latest%2Ffont%2FSerif%2Fcmunrm.woff;" parent="1" vertex="1">
          <mxGeometry x="359" y="720" width="30" height="30" as="geometry" />
        </mxCell>
        <mxCell id="1o7OQgsqpj5E0O2IyzL--21" value="E" style="text;html=1;align=center;verticalAlign=middle;resizable=0;points=[];autosize=1;strokeColor=none;fillColor=none;fontFamily=CMU Serif;fontSource=https%3A%2F%2Fcdn.jsdelivr.net%2Fgh%2Fbitmaks%2Fcm-web-fonts%40latest%2Ffont%2FSerif%2Fcmunrm.woff;" parent="1" vertex="1">
          <mxGeometry x="439" y="720" width="30" height="30" as="geometry" />
        </mxCell>
        <mxCell id="1o7OQgsqpj5E0O2IyzL--22" value="F" style="text;html=1;align=center;verticalAlign=middle;resizable=0;points=[];autosize=1;strokeColor=none;fillColor=none;fontFamily=CMU Serif;fontSource=https%3A%2F%2Fcdn.jsdelivr.net%2Fgh%2Fbitmaks%2Fcm-web-fonts%40latest%2Ffont%2FSerif%2Fcmunrm.woff;" parent="1" vertex="1">
          <mxGeometry x="519" y="720" width="30" height="30" as="geometry" />
        </mxCell>
        <mxCell id="1o7OQgsqpj5E0O2IyzL--23" value="G" style="text;html=1;align=center;verticalAlign=middle;resizable=0;points=[];autosize=1;strokeColor=none;fillColor=none;fontFamily=CMU Serif;fontSource=https%3A%2F%2Fcdn.jsdelivr.net%2Fgh%2Fbitmaks%2Fcm-web-fonts%40latest%2Ffont%2FSerif%2Fcmunrm.woff;" parent="1" vertex="1">
          <mxGeometry x="599" y="720" width="30" height="30" as="geometry" />
        </mxCell>
        <mxCell id="1o7OQgsqpj5E0O2IyzL--24" value="H" style="text;html=1;align=center;verticalAlign=middle;resizable=0;points=[];autosize=1;strokeColor=none;fillColor=none;fontFamily=CMU Serif;fontSource=https%3A%2F%2Fcdn.jsdelivr.net%2Fgh%2Fbitmaks%2Fcm-web-fonts%40latest%2Ffont%2FSerif%2Fcmunrm.woff;" parent="1" vertex="1">
          <mxGeometry x="679" y="720" width="30" height="30" as="geometry" />
        </mxCell>
        <mxCell id="1o7OQgsqpj5E0O2IyzL--25" value="" style="whiteSpace=wrap;html=1;aspect=fixed;fontFamily=CMU Serif;fontSource=https%3A%2F%2Fcdn.jsdelivr.net%2Fgh%2Fbitmaks%2Fcm-web-fonts%40latest%2Ffont%2FSerif%2Fcmunrm.woff;fillColor=#000000;" parent="1" vertex="1">
          <mxGeometry x="94" y="480" width="80" height="80" as="geometry" />
        </mxCell>
        <mxCell id="1o7OQgsqpj5E0O2IyzL--26" value="" style="whiteSpace=wrap;html=1;aspect=fixed;fillColor=#FFFFFF;fontFamily=CMU Serif;fontSource=https%3A%2F%2Fcdn.jsdelivr.net%2Fgh%2Fbitmaks%2Fcm-web-fonts%40latest%2Ffont%2FSerif%2Fcmunrm.woff;" parent="1" vertex="1">
          <mxGeometry x="174" y="480" width="80" height="80" as="geometry" />
        </mxCell>
        <mxCell id="1o7OQgsqpj5E0O2IyzL--27" value="" style="whiteSpace=wrap;html=1;aspect=fixed;fontFamily=CMU Serif;fontSource=https%3A%2F%2Fcdn.jsdelivr.net%2Fgh%2Fbitmaks%2Fcm-web-fonts%40latest%2Ffont%2FSerif%2Fcmunrm.woff;fillColor=#000000;" parent="1" vertex="1">
          <mxGeometry x="254" y="480" width="80" height="80" as="geometry" />
        </mxCell>
        <mxCell id="1o7OQgsqpj5E0O2IyzL--28" value="" style="whiteSpace=wrap;html=1;aspect=fixed;fillColor=#FFFFFF;fontFamily=CMU Serif;fontSource=https%3A%2F%2Fcdn.jsdelivr.net%2Fgh%2Fbitmaks%2Fcm-web-fonts%40latest%2Ffont%2FSerif%2Fcmunrm.woff;" parent="1" vertex="1">
          <mxGeometry x="334" y="480" width="80" height="80" as="geometry" />
        </mxCell>
        <mxCell id="1o7OQgsqpj5E0O2IyzL--29" value="" style="whiteSpace=wrap;html=1;aspect=fixed;fontFamily=CMU Serif;fontSource=https%3A%2F%2Fcdn.jsdelivr.net%2Fgh%2Fbitmaks%2Fcm-web-fonts%40latest%2Ffont%2FSerif%2Fcmunrm.woff;fillColor=#000000;" parent="1" vertex="1">
          <mxGeometry x="414" y="480" width="80" height="80" as="geometry" />
        </mxCell>
        <mxCell id="1o7OQgsqpj5E0O2IyzL--30" value="" style="whiteSpace=wrap;html=1;aspect=fixed;fillColor=#FFFFFF;fontFamily=CMU Serif;fontSource=https%3A%2F%2Fcdn.jsdelivr.net%2Fgh%2Fbitmaks%2Fcm-web-fonts%40latest%2Ffont%2FSerif%2Fcmunrm.woff;" parent="1" vertex="1">
          <mxGeometry x="494" y="480" width="80" height="80" as="geometry" />
        </mxCell>
        <mxCell id="1o7OQgsqpj5E0O2IyzL--31" value="" style="whiteSpace=wrap;html=1;aspect=fixed;fontFamily=CMU Serif;fontSource=https%3A%2F%2Fcdn.jsdelivr.net%2Fgh%2Fbitmaks%2Fcm-web-fonts%40latest%2Ffont%2FSerif%2Fcmunrm.woff;fillColor=#000000;" parent="1" vertex="1">
          <mxGeometry x="574" y="480" width="80" height="80" as="geometry" />
        </mxCell>
        <mxCell id="1o7OQgsqpj5E0O2IyzL--32" value="" style="whiteSpace=wrap;html=1;aspect=fixed;fillColor=#FFFFFF;fontFamily=CMU Serif;fontSource=https%3A%2F%2Fcdn.jsdelivr.net%2Fgh%2Fbitmaks%2Fcm-web-fonts%40latest%2Ffont%2FSerif%2Fcmunrm.woff;" parent="1" vertex="1">
          <mxGeometry x="654" y="480" width="80" height="80" as="geometry" />
        </mxCell>
        <mxCell id="1o7OQgsqpj5E0O2IyzL--33" value="" style="whiteSpace=wrap;html=1;aspect=fixed;fontFamily=CMU Serif;fontSource=https%3A%2F%2Fcdn.jsdelivr.net%2Fgh%2Fbitmaks%2Fcm-web-fonts%40latest%2Ffont%2FSerif%2Fcmunrm.woff;fillColor=#000000;" parent="1" vertex="1">
          <mxGeometry x="174" y="400" width="80" height="80" as="geometry" />
        </mxCell>
        <mxCell id="1o7OQgsqpj5E0O2IyzL--34" value="" style="whiteSpace=wrap;html=1;aspect=fixed;fillColor=#FFFFFF;fontFamily=CMU Serif;fontSource=https%3A%2F%2Fcdn.jsdelivr.net%2Fgh%2Fbitmaks%2Fcm-web-fonts%40latest%2Ffont%2FSerif%2Fcmunrm.woff;" parent="1" vertex="1">
          <mxGeometry x="254" y="400" width="80" height="80" as="geometry" />
        </mxCell>
        <mxCell id="1o7OQgsqpj5E0O2IyzL--35" value="" style="whiteSpace=wrap;html=1;aspect=fixed;fontFamily=CMU Serif;fontSource=https%3A%2F%2Fcdn.jsdelivr.net%2Fgh%2Fbitmaks%2Fcm-web-fonts%40latest%2Ffont%2FSerif%2Fcmunrm.woff;fillColor=#000000;" parent="1" vertex="1">
          <mxGeometry x="334" y="400" width="80" height="80" as="geometry" />
        </mxCell>
        <mxCell id="1o7OQgsqpj5E0O2IyzL--36" value="" style="whiteSpace=wrap;html=1;aspect=fixed;fillColor=#FFFFFF;fontFamily=CMU Serif;fontSource=https%3A%2F%2Fcdn.jsdelivr.net%2Fgh%2Fbitmaks%2Fcm-web-fonts%40latest%2Ffont%2FSerif%2Fcmunrm.woff;" parent="1" vertex="1">
          <mxGeometry x="414" y="400" width="80" height="80" as="geometry" />
        </mxCell>
        <mxCell id="1o7OQgsqpj5E0O2IyzL--37" value="" style="whiteSpace=wrap;html=1;aspect=fixed;fontFamily=CMU Serif;fontSource=https%3A%2F%2Fcdn.jsdelivr.net%2Fgh%2Fbitmaks%2Fcm-web-fonts%40latest%2Ffont%2FSerif%2Fcmunrm.woff;fillColor=#000000;" parent="1" vertex="1">
          <mxGeometry x="494" y="400" width="80" height="80" as="geometry" />
        </mxCell>
        <mxCell id="1o7OQgsqpj5E0O2IyzL--38" value="" style="whiteSpace=wrap;html=1;aspect=fixed;fillColor=#FFFFFF;fontFamily=CMU Serif;fontSource=https%3A%2F%2Fcdn.jsdelivr.net%2Fgh%2Fbitmaks%2Fcm-web-fonts%40latest%2Ffont%2FSerif%2Fcmunrm.woff;" parent="1" vertex="1">
          <mxGeometry x="574" y="400" width="80" height="80" as="geometry" />
        </mxCell>
        <mxCell id="1o7OQgsqpj5E0O2IyzL--39" value="" style="whiteSpace=wrap;html=1;aspect=fixed;fontFamily=CMU Serif;fontSource=https%3A%2F%2Fcdn.jsdelivr.net%2Fgh%2Fbitmaks%2Fcm-web-fonts%40latest%2Ffont%2FSerif%2Fcmunrm.woff;fillColor=#000000;" parent="1" vertex="1">
          <mxGeometry x="654" y="400" width="80" height="80" as="geometry" />
        </mxCell>
        <mxCell id="1o7OQgsqpj5E0O2IyzL--40" value="" style="whiteSpace=wrap;html=1;aspect=fixed;fillColor=#FFFFFF;fontFamily=CMU Serif;fontSource=https%3A%2F%2Fcdn.jsdelivr.net%2Fgh%2Fbitmaks%2Fcm-web-fonts%40latest%2Ffont%2FSerif%2Fcmunrm.woff;" parent="1" vertex="1">
          <mxGeometry x="94" y="400" width="80" height="80" as="geometry" />
        </mxCell>
        <mxCell id="1o7OQgsqpj5E0O2IyzL--41" value="" style="whiteSpace=wrap;html=1;aspect=fixed;fontFamily=CMU Serif;fontSource=https%3A%2F%2Fcdn.jsdelivr.net%2Fgh%2Fbitmaks%2Fcm-web-fonts%40latest%2Ffont%2FSerif%2Fcmunrm.woff;fillColor=#000000;" parent="1" vertex="1">
          <mxGeometry x="94" y="320" width="80" height="80" as="geometry" />
        </mxCell>
        <mxCell id="1o7OQgsqpj5E0O2IyzL--42" value="" style="whiteSpace=wrap;html=1;aspect=fixed;fillColor=#FFFFFF;fontFamily=CMU Serif;fontSource=https%3A%2F%2Fcdn.jsdelivr.net%2Fgh%2Fbitmaks%2Fcm-web-fonts%40latest%2Ffont%2FSerif%2Fcmunrm.woff;" parent="1" vertex="1">
          <mxGeometry x="174" y="320" width="80" height="80" as="geometry" />
        </mxCell>
        <mxCell id="1o7OQgsqpj5E0O2IyzL--43" value="" style="whiteSpace=wrap;html=1;aspect=fixed;fontFamily=CMU Serif;fontSource=https%3A%2F%2Fcdn.jsdelivr.net%2Fgh%2Fbitmaks%2Fcm-web-fonts%40latest%2Ffont%2FSerif%2Fcmunrm.woff;fillColor=#000000;" parent="1" vertex="1">
          <mxGeometry x="254" y="320" width="80" height="80" as="geometry" />
        </mxCell>
        <mxCell id="1o7OQgsqpj5E0O2IyzL--44" value="" style="whiteSpace=wrap;html=1;aspect=fixed;fillColor=#FFFFFF;fontFamily=CMU Serif;fontSource=https%3A%2F%2Fcdn.jsdelivr.net%2Fgh%2Fbitmaks%2Fcm-web-fonts%40latest%2Ffont%2FSerif%2Fcmunrm.woff;" parent="1" vertex="1">
          <mxGeometry x="334" y="320" width="80" height="80" as="geometry" />
        </mxCell>
        <mxCell id="1o7OQgsqpj5E0O2IyzL--45" value="" style="whiteSpace=wrap;html=1;aspect=fixed;fontFamily=CMU Serif;fontSource=https%3A%2F%2Fcdn.jsdelivr.net%2Fgh%2Fbitmaks%2Fcm-web-fonts%40latest%2Ffont%2FSerif%2Fcmunrm.woff;fillColor=#000000;" parent="1" vertex="1">
          <mxGeometry x="414" y="320" width="80" height="80" as="geometry" />
        </mxCell>
        <mxCell id="1o7OQgsqpj5E0O2IyzL--46" value="" style="whiteSpace=wrap;html=1;aspect=fixed;fillColor=#FFFFFF;fontFamily=CMU Serif;fontSource=https%3A%2F%2Fcdn.jsdelivr.net%2Fgh%2Fbitmaks%2Fcm-web-fonts%40latest%2Ffont%2FSerif%2Fcmunrm.woff;" parent="1" vertex="1">
          <mxGeometry x="494" y="320" width="80" height="80" as="geometry" />
        </mxCell>
        <mxCell id="1o7OQgsqpj5E0O2IyzL--47" value="" style="whiteSpace=wrap;html=1;aspect=fixed;fontFamily=CMU Serif;fontSource=https%3A%2F%2Fcdn.jsdelivr.net%2Fgh%2Fbitmaks%2Fcm-web-fonts%40latest%2Ffont%2FSerif%2Fcmunrm.woff;fillColor=#000000;" parent="1" vertex="1">
          <mxGeometry x="574" y="320" width="80" height="80" as="geometry" />
        </mxCell>
        <mxCell id="1o7OQgsqpj5E0O2IyzL--48" value="" style="whiteSpace=wrap;html=1;aspect=fixed;fillColor=#FFFFFF;fontFamily=CMU Serif;fontSource=https%3A%2F%2Fcdn.jsdelivr.net%2Fgh%2Fbitmaks%2Fcm-web-fonts%40latest%2Ffont%2FSerif%2Fcmunrm.woff;" parent="1" vertex="1">
          <mxGeometry x="654" y="320" width="80" height="80" as="geometry" />
        </mxCell>
        <mxCell id="1o7OQgsqpj5E0O2IyzL--49" value="" style="whiteSpace=wrap;html=1;aspect=fixed;fontFamily=CMU Serif;fontSource=https%3A%2F%2Fcdn.jsdelivr.net%2Fgh%2Fbitmaks%2Fcm-web-fonts%40latest%2Ffont%2FSerif%2Fcmunrm.woff;fillColor=#000000;" parent="1" vertex="1">
          <mxGeometry x="174" y="240" width="80" height="80" as="geometry" />
        </mxCell>
        <mxCell id="1o7OQgsqpj5E0O2IyzL--50" value="" style="whiteSpace=wrap;html=1;aspect=fixed;fillColor=#FFFFFF;fontFamily=CMU Serif;fontSource=https%3A%2F%2Fcdn.jsdelivr.net%2Fgh%2Fbitmaks%2Fcm-web-fonts%40latest%2Ffont%2FSerif%2Fcmunrm.woff;" parent="1" vertex="1">
          <mxGeometry x="254" y="240" width="80" height="80" as="geometry" />
        </mxCell>
        <mxCell id="1o7OQgsqpj5E0O2IyzL--51" value="" style="whiteSpace=wrap;html=1;aspect=fixed;fontFamily=CMU Serif;fontSource=https%3A%2F%2Fcdn.jsdelivr.net%2Fgh%2Fbitmaks%2Fcm-web-fonts%40latest%2Ffont%2FSerif%2Fcmunrm.woff;fillColor=#000000;" parent="1" vertex="1">
          <mxGeometry x="334" y="240" width="80" height="80" as="geometry" />
        </mxCell>
        <mxCell id="1o7OQgsqpj5E0O2IyzL--52" value="" style="whiteSpace=wrap;html=1;aspect=fixed;fillColor=#FFFFFF;fontFamily=CMU Serif;fontSource=https%3A%2F%2Fcdn.jsdelivr.net%2Fgh%2Fbitmaks%2Fcm-web-fonts%40latest%2Ffont%2FSerif%2Fcmunrm.woff;" parent="1" vertex="1">
          <mxGeometry x="414" y="240" width="80" height="80" as="geometry" />
        </mxCell>
        <mxCell id="1o7OQgsqpj5E0O2IyzL--53" value="" style="whiteSpace=wrap;html=1;aspect=fixed;fontFamily=CMU Serif;fontSource=https%3A%2F%2Fcdn.jsdelivr.net%2Fgh%2Fbitmaks%2Fcm-web-fonts%40latest%2Ffont%2FSerif%2Fcmunrm.woff;fillColor=#000000;" parent="1" vertex="1">
          <mxGeometry x="494" y="240" width="80" height="80" as="geometry" />
        </mxCell>
        <mxCell id="1o7OQgsqpj5E0O2IyzL--54" value="" style="whiteSpace=wrap;html=1;aspect=fixed;fillColor=#FFFFFF;fontFamily=CMU Serif;fontSource=https%3A%2F%2Fcdn.jsdelivr.net%2Fgh%2Fbitmaks%2Fcm-web-fonts%40latest%2Ffont%2FSerif%2Fcmunrm.woff;" parent="1" vertex="1">
          <mxGeometry x="574" y="240" width="80" height="80" as="geometry" />
        </mxCell>
        <mxCell id="1o7OQgsqpj5E0O2IyzL--55" value="" style="whiteSpace=wrap;html=1;aspect=fixed;fontFamily=CMU Serif;fontSource=https%3A%2F%2Fcdn.jsdelivr.net%2Fgh%2Fbitmaks%2Fcm-web-fonts%40latest%2Ffont%2FSerif%2Fcmunrm.woff;fillColor=#000000;" parent="1" vertex="1">
          <mxGeometry x="654" y="240" width="80" height="80" as="geometry" />
        </mxCell>
        <mxCell id="1o7OQgsqpj5E0O2IyzL--56" value="" style="whiteSpace=wrap;html=1;aspect=fixed;fillColor=#FFFFFF;fontFamily=CMU Serif;fontSource=https%3A%2F%2Fcdn.jsdelivr.net%2Fgh%2Fbitmaks%2Fcm-web-fonts%40latest%2Ffont%2FSerif%2Fcmunrm.woff;" parent="1" vertex="1">
          <mxGeometry x="94" y="240" width="80" height="80" as="geometry" />
        </mxCell>
        <mxCell id="1o7OQgsqpj5E0O2IyzL--57" value="" style="whiteSpace=wrap;html=1;aspect=fixed;fontFamily=CMU Serif;fontSource=https%3A%2F%2Fcdn.jsdelivr.net%2Fgh%2Fbitmaks%2Fcm-web-fonts%40latest%2Ffont%2FSerif%2Fcmunrm.woff;fillColor=#000000;" parent="1" vertex="1">
          <mxGeometry x="94" y="160" width="80" height="80" as="geometry" />
        </mxCell>
        <mxCell id="1o7OQgsqpj5E0O2IyzL--58" value="" style="whiteSpace=wrap;html=1;aspect=fixed;fillColor=#FFFFFF;fontFamily=CMU Serif;fontSource=https%3A%2F%2Fcdn.jsdelivr.net%2Fgh%2Fbitmaks%2Fcm-web-fonts%40latest%2Ffont%2FSerif%2Fcmunrm.woff;" parent="1" vertex="1">
          <mxGeometry x="174" y="160" width="80" height="80" as="geometry" />
        </mxCell>
        <mxCell id="1o7OQgsqpj5E0O2IyzL--59" value="" style="whiteSpace=wrap;html=1;aspect=fixed;fontFamily=CMU Serif;fontSource=https%3A%2F%2Fcdn.jsdelivr.net%2Fgh%2Fbitmaks%2Fcm-web-fonts%40latest%2Ffont%2FSerif%2Fcmunrm.woff;fillColor=#000000;" parent="1" vertex="1">
          <mxGeometry x="254" y="160" width="80" height="80" as="geometry" />
        </mxCell>
        <mxCell id="1o7OQgsqpj5E0O2IyzL--60" value="" style="whiteSpace=wrap;html=1;aspect=fixed;fillColor=#FFFFFF;fontFamily=CMU Serif;fontSource=https%3A%2F%2Fcdn.jsdelivr.net%2Fgh%2Fbitmaks%2Fcm-web-fonts%40latest%2Ffont%2FSerif%2Fcmunrm.woff;" parent="1" vertex="1">
          <mxGeometry x="334" y="160" width="80" height="80" as="geometry" />
        </mxCell>
        <mxCell id="1o7OQgsqpj5E0O2IyzL--61" value="" style="whiteSpace=wrap;html=1;aspect=fixed;fontFamily=CMU Serif;fontSource=https%3A%2F%2Fcdn.jsdelivr.net%2Fgh%2Fbitmaks%2Fcm-web-fonts%40latest%2Ffont%2FSerif%2Fcmunrm.woff;fillColor=#000000;" parent="1" vertex="1">
          <mxGeometry x="414" y="160" width="80" height="80" as="geometry" />
        </mxCell>
        <mxCell id="1o7OQgsqpj5E0O2IyzL--62" value="" style="whiteSpace=wrap;html=1;aspect=fixed;fillColor=#FFFFFF;fontFamily=CMU Serif;fontSource=https%3A%2F%2Fcdn.jsdelivr.net%2Fgh%2Fbitmaks%2Fcm-web-fonts%40latest%2Ffont%2FSerif%2Fcmunrm.woff;" parent="1" vertex="1">
          <mxGeometry x="494" y="160" width="80" height="80" as="geometry" />
        </mxCell>
        <mxCell id="1o7OQgsqpj5E0O2IyzL--63" value="" style="whiteSpace=wrap;html=1;aspect=fixed;fontFamily=CMU Serif;fontSource=https%3A%2F%2Fcdn.jsdelivr.net%2Fgh%2Fbitmaks%2Fcm-web-fonts%40latest%2Ffont%2FSerif%2Fcmunrm.woff;fillColor=#000000;" parent="1" vertex="1">
          <mxGeometry x="574" y="160" width="80" height="80" as="geometry" />
        </mxCell>
        <mxCell id="1o7OQgsqpj5E0O2IyzL--64" value="" style="whiteSpace=wrap;html=1;aspect=fixed;fillColor=#FFFFFF;fontFamily=CMU Serif;fontSource=https%3A%2F%2Fcdn.jsdelivr.net%2Fgh%2Fbitmaks%2Fcm-web-fonts%40latest%2Ffont%2FSerif%2Fcmunrm.woff;" parent="1" vertex="1">
          <mxGeometry x="654" y="160" width="80" height="80" as="geometry" />
        </mxCell>
        <mxCell id="1o7OQgsqpj5E0O2IyzL--65" value="" style="whiteSpace=wrap;html=1;aspect=fixed;fontFamily=CMU Serif;fontSource=https%3A%2F%2Fcdn.jsdelivr.net%2Fgh%2Fbitmaks%2Fcm-web-fonts%40latest%2Ffont%2FSerif%2Fcmunrm.woff;fillColor=#000000;" parent="1" vertex="1">
          <mxGeometry x="174" y="80" width="80" height="80" as="geometry" />
        </mxCell>
        <mxCell id="1o7OQgsqpj5E0O2IyzL--66" value="" style="whiteSpace=wrap;html=1;aspect=fixed;fillColor=#FFFFFF;fontFamily=CMU Serif;fontSource=https%3A%2F%2Fcdn.jsdelivr.net%2Fgh%2Fbitmaks%2Fcm-web-fonts%40latest%2Ffont%2FSerif%2Fcmunrm.woff;" parent="1" vertex="1">
          <mxGeometry x="254" y="80" width="80" height="80" as="geometry" />
        </mxCell>
        <mxCell id="1o7OQgsqpj5E0O2IyzL--67" value="" style="whiteSpace=wrap;html=1;aspect=fixed;fontFamily=CMU Serif;fontSource=https%3A%2F%2Fcdn.jsdelivr.net%2Fgh%2Fbitmaks%2Fcm-web-fonts%40latest%2Ffont%2FSerif%2Fcmunrm.woff;fillColor=#000000;" parent="1" vertex="1">
          <mxGeometry x="334" y="80" width="80" height="80" as="geometry" />
        </mxCell>
        <mxCell id="1o7OQgsqpj5E0O2IyzL--68" value="" style="whiteSpace=wrap;html=1;aspect=fixed;fillColor=#FFFFFF;fontFamily=CMU Serif;fontSource=https%3A%2F%2Fcdn.jsdelivr.net%2Fgh%2Fbitmaks%2Fcm-web-fonts%40latest%2Ffont%2FSerif%2Fcmunrm.woff;" parent="1" vertex="1">
          <mxGeometry x="414" y="80" width="80" height="80" as="geometry" />
        </mxCell>
        <mxCell id="1o7OQgsqpj5E0O2IyzL--69" value="" style="whiteSpace=wrap;html=1;aspect=fixed;fontFamily=CMU Serif;fontSource=https%3A%2F%2Fcdn.jsdelivr.net%2Fgh%2Fbitmaks%2Fcm-web-fonts%40latest%2Ffont%2FSerif%2Fcmunrm.woff;fillColor=#000000;" parent="1" vertex="1">
          <mxGeometry x="494" y="80" width="80" height="80" as="geometry" />
        </mxCell>
        <mxCell id="1o7OQgsqpj5E0O2IyzL--70" value="" style="whiteSpace=wrap;html=1;aspect=fixed;fillColor=#FFFFFF;fontFamily=CMU Serif;fontSource=https%3A%2F%2Fcdn.jsdelivr.net%2Fgh%2Fbitmaks%2Fcm-web-fonts%40latest%2Ffont%2FSerif%2Fcmunrm.woff;" parent="1" vertex="1">
          <mxGeometry x="574" y="80" width="80" height="80" as="geometry" />
        </mxCell>
        <mxCell id="1o7OQgsqpj5E0O2IyzL--71" value="" style="whiteSpace=wrap;html=1;aspect=fixed;fontFamily=CMU Serif;fontSource=https%3A%2F%2Fcdn.jsdelivr.net%2Fgh%2Fbitmaks%2Fcm-web-fonts%40latest%2Ffont%2FSerif%2Fcmunrm.woff;fillColor=#000000;" parent="1" vertex="1">
          <mxGeometry x="654" y="80" width="80" height="80" as="geometry" />
        </mxCell>
        <mxCell id="1o7OQgsqpj5E0O2IyzL--72" value="" style="whiteSpace=wrap;html=1;aspect=fixed;fillColor=#FFFFFF;fontFamily=CMU Serif;fontSource=https%3A%2F%2Fcdn.jsdelivr.net%2Fgh%2Fbitmaks%2Fcm-web-fonts%40latest%2Ffont%2FSerif%2Fcmunrm.woff;" parent="1" vertex="1">
          <mxGeometry x="94" y="80" width="80" height="80" as="geometry" />
        </mxCell>
        <mxCell id="1o7OQgsqpj5E0O2IyzL--73" value="1" style="text;html=1;align=center;verticalAlign=middle;resizable=0;points=[];autosize=1;strokeColor=none;fillColor=none;fontFamily=CMU Serif;fontSource=https%3A%2F%2Fcdn.jsdelivr.net%2Fgh%2Fbitmaks%2Fcm-web-fonts%40latest%2Ffont%2FSerif%2Fcmunrm.woff;" parent="1" vertex="1">
          <mxGeometry x="64" y="665" width="30" height="30" as="geometry" />
        </mxCell>
        <mxCell id="1o7OQgsqpj5E0O2IyzL--74" value="2" style="text;html=1;align=center;verticalAlign=middle;resizable=0;points=[];autosize=1;strokeColor=none;fillColor=none;fontFamily=CMU Serif;fontSource=https%3A%2F%2Fcdn.jsdelivr.net%2Fgh%2Fbitmaks%2Fcm-web-fonts%40latest%2Ffont%2FSerif%2Fcmunrm.woff;" parent="1" vertex="1">
          <mxGeometry x="64" y="585" width="30" height="30" as="geometry" />
        </mxCell>
        <mxCell id="1o7OQgsqpj5E0O2IyzL--75" value="3" style="text;html=1;align=center;verticalAlign=middle;resizable=0;points=[];autosize=1;strokeColor=none;fillColor=none;fontFamily=CMU Serif;fontSource=https%3A%2F%2Fcdn.jsdelivr.net%2Fgh%2Fbitmaks%2Fcm-web-fonts%40latest%2Ffont%2FSerif%2Fcmunrm.woff;" parent="1" vertex="1">
          <mxGeometry x="64" y="505" width="30" height="30" as="geometry" />
        </mxCell>
        <mxCell id="1o7OQgsqpj5E0O2IyzL--76" value="4" style="text;html=1;align=center;verticalAlign=middle;resizable=0;points=[];autosize=1;strokeColor=none;fillColor=none;fontFamily=CMU Serif;fontSource=https%3A%2F%2Fcdn.jsdelivr.net%2Fgh%2Fbitmaks%2Fcm-web-fonts%40latest%2Ffont%2FSerif%2Fcmunrm.woff;" parent="1" vertex="1">
          <mxGeometry x="64" y="425" width="30" height="30" as="geometry" />
        </mxCell>
        <mxCell id="1o7OQgsqpj5E0O2IyzL--77" value="5" style="text;html=1;align=center;verticalAlign=middle;resizable=0;points=[];autosize=1;strokeColor=none;fillColor=none;fontFamily=CMU Serif;fontSource=https%3A%2F%2Fcdn.jsdelivr.net%2Fgh%2Fbitmaks%2Fcm-web-fonts%40latest%2Ffont%2FSerif%2Fcmunrm.woff;" parent="1" vertex="1">
          <mxGeometry x="64" y="345" width="30" height="30" as="geometry" />
        </mxCell>
        <mxCell id="1o7OQgsqpj5E0O2IyzL--78" value="6" style="text;html=1;align=center;verticalAlign=middle;resizable=0;points=[];autosize=1;strokeColor=none;fillColor=none;fontFamily=CMU Serif;fontSource=https%3A%2F%2Fcdn.jsdelivr.net%2Fgh%2Fbitmaks%2Fcm-web-fonts%40latest%2Ffont%2FSerif%2Fcmunrm.woff;" parent="1" vertex="1">
          <mxGeometry x="64" y="265" width="30" height="30" as="geometry" />
        </mxCell>
        <mxCell id="1o7OQgsqpj5E0O2IyzL--79" value="7" style="text;html=1;align=center;verticalAlign=middle;resizable=0;points=[];autosize=1;strokeColor=none;fillColor=none;fontFamily=CMU Serif;fontSource=https%3A%2F%2Fcdn.jsdelivr.net%2Fgh%2Fbitmaks%2Fcm-web-fonts%40latest%2Ffont%2FSerif%2Fcmunrm.woff;" parent="1" vertex="1">
          <mxGeometry x="64" y="185" width="30" height="30" as="geometry" />
        </mxCell>
        <mxCell id="1o7OQgsqpj5E0O2IyzL--80" value="8" style="text;html=1;align=center;verticalAlign=middle;resizable=0;points=[];autosize=1;strokeColor=none;fillColor=none;fontFamily=CMU Serif;fontSource=https%3A%2F%2Fcdn.jsdelivr.net%2Fgh%2Fbitmaks%2Fcm-web-fonts%40latest%2Ffont%2FSerif%2Fcmunrm.woff;" parent="1" vertex="1">
          <mxGeometry x="64" y="105" width="30" height="30" as="geometry" />
        </mxCell>
        <mxCell id="1o7OQgsqpj5E0O2IyzL--81" value="1" style="text;html=1;align=center;verticalAlign=middle;resizable=0;points=[];autosize=1;strokeColor=none;fillColor=none;fontFamily=CMU Serif;fontSource=https%3A%2F%2Fcdn.jsdelivr.net%2Fgh%2Fbitmaks%2Fcm-web-fonts%40latest%2Ffont%2FSerif%2Fcmunrm.woff;" parent="1" vertex="1">
          <mxGeometry x="734" y="665" width="30" height="30" as="geometry" />
        </mxCell>
        <mxCell id="1o7OQgsqpj5E0O2IyzL--82" value="2" style="text;html=1;align=center;verticalAlign=middle;resizable=0;points=[];autosize=1;strokeColor=none;fillColor=none;fontFamily=CMU Serif;fontSource=https%3A%2F%2Fcdn.jsdelivr.net%2Fgh%2Fbitmaks%2Fcm-web-fonts%40latest%2Ffont%2FSerif%2Fcmunrm.woff;" parent="1" vertex="1">
          <mxGeometry x="734" y="585" width="30" height="30" as="geometry" />
        </mxCell>
        <mxCell id="1o7OQgsqpj5E0O2IyzL--83" value="3" style="text;html=1;align=center;verticalAlign=middle;resizable=0;points=[];autosize=1;strokeColor=none;fillColor=none;fontFamily=CMU Serif;fontSource=https%3A%2F%2Fcdn.jsdelivr.net%2Fgh%2Fbitmaks%2Fcm-web-fonts%40latest%2Ffont%2FSerif%2Fcmunrm.woff;" parent="1" vertex="1">
          <mxGeometry x="734" y="505" width="30" height="30" as="geometry" />
        </mxCell>
        <mxCell id="1o7OQgsqpj5E0O2IyzL--84" value="4" style="text;html=1;align=center;verticalAlign=middle;resizable=0;points=[];autosize=1;strokeColor=none;fillColor=none;fontFamily=CMU Serif;fontSource=https%3A%2F%2Fcdn.jsdelivr.net%2Fgh%2Fbitmaks%2Fcm-web-fonts%40latest%2Ffont%2FSerif%2Fcmunrm.woff;" parent="1" vertex="1">
          <mxGeometry x="734" y="425" width="30" height="30" as="geometry" />
        </mxCell>
        <mxCell id="1o7OQgsqpj5E0O2IyzL--85" value="5" style="text;html=1;align=center;verticalAlign=middle;resizable=0;points=[];autosize=1;strokeColor=none;fillColor=none;fontFamily=CMU Serif;fontSource=https%3A%2F%2Fcdn.jsdelivr.net%2Fgh%2Fbitmaks%2Fcm-web-fonts%40latest%2Ffont%2FSerif%2Fcmunrm.woff;" parent="1" vertex="1">
          <mxGeometry x="734" y="345" width="30" height="30" as="geometry" />
        </mxCell>
        <mxCell id="1o7OQgsqpj5E0O2IyzL--86" value="6" style="text;html=1;align=center;verticalAlign=middle;resizable=0;points=[];autosize=1;strokeColor=none;fillColor=none;fontFamily=CMU Serif;fontSource=https%3A%2F%2Fcdn.jsdelivr.net%2Fgh%2Fbitmaks%2Fcm-web-fonts%40latest%2Ffont%2FSerif%2Fcmunrm.woff;" parent="1" vertex="1">
          <mxGeometry x="734" y="265" width="30" height="30" as="geometry" />
        </mxCell>
        <mxCell id="1o7OQgsqpj5E0O2IyzL--87" value="7" style="text;html=1;align=center;verticalAlign=middle;resizable=0;points=[];autosize=1;strokeColor=none;fillColor=none;fontFamily=CMU Serif;fontSource=https%3A%2F%2Fcdn.jsdelivr.net%2Fgh%2Fbitmaks%2Fcm-web-fonts%40latest%2Ffont%2FSerif%2Fcmunrm.woff;" parent="1" vertex="1">
          <mxGeometry x="734" y="185" width="30" height="30" as="geometry" />
        </mxCell>
        <mxCell id="1o7OQgsqpj5E0O2IyzL--88" value="8" style="text;html=1;align=center;verticalAlign=middle;resizable=0;points=[];autosize=1;strokeColor=none;fillColor=none;fontFamily=CMU Serif;fontSource=https%3A%2F%2Fcdn.jsdelivr.net%2Fgh%2Fbitmaks%2Fcm-web-fonts%40latest%2Ffont%2FSerif%2Fcmunrm.woff;" parent="1" vertex="1">
          <mxGeometry x="734" y="105" width="30" height="30" as="geometry" />
        </mxCell>
        <mxCell id="1o7OQgsqpj5E0O2IyzL--89" value="A" style="text;html=1;align=center;verticalAlign=middle;resizable=0;points=[];autosize=1;strokeColor=none;fillColor=none;fontFamily=CMU Serif;fontSource=https%3A%2F%2Fcdn.jsdelivr.net%2Fgh%2Fbitmaks%2Fcm-web-fonts%40latest%2Ffont%2FSerif%2Fcmunrm.woff;" parent="1" vertex="1">
          <mxGeometry x="119" y="50" width="30" height="30" as="geometry" />
        </mxCell>
        <mxCell id="1o7OQgsqpj5E0O2IyzL--90" value="B" style="text;html=1;align=center;verticalAlign=middle;resizable=0;points=[];autosize=1;strokeColor=none;fillColor=none;fontFamily=CMU Serif;fontSource=https%3A%2F%2Fcdn.jsdelivr.net%2Fgh%2Fbitmaks%2Fcm-web-fonts%40latest%2Ffont%2FSerif%2Fcmunrm.woff;" parent="1" vertex="1">
          <mxGeometry x="199" y="50" width="30" height="30" as="geometry" />
        </mxCell>
        <mxCell id="1o7OQgsqpj5E0O2IyzL--91" value="C" style="text;html=1;align=center;verticalAlign=middle;resizable=0;points=[];autosize=1;strokeColor=none;fillColor=none;fontFamily=CMU Serif;fontSource=https%3A%2F%2Fcdn.jsdelivr.net%2Fgh%2Fbitmaks%2Fcm-web-fonts%40latest%2Ffont%2FSerif%2Fcmunrm.woff;" parent="1" vertex="1">
          <mxGeometry x="278" y="50" width="30" height="30" as="geometry" />
        </mxCell>
        <mxCell id="1o7OQgsqpj5E0O2IyzL--92" value="D" style="text;html=1;align=center;verticalAlign=middle;resizable=0;points=[];autosize=1;strokeColor=none;fillColor=none;fontFamily=CMU Serif;fontSource=https%3A%2F%2Fcdn.jsdelivr.net%2Fgh%2Fbitmaks%2Fcm-web-fonts%40latest%2Ffont%2FSerif%2Fcmunrm.woff;" parent="1" vertex="1">
          <mxGeometry x="359" y="50" width="30" height="30" as="geometry" />
        </mxCell>
        <mxCell id="1o7OQgsqpj5E0O2IyzL--93" value="E" style="text;html=1;align=center;verticalAlign=middle;resizable=0;points=[];autosize=1;strokeColor=none;fillColor=none;fontFamily=CMU Serif;fontSource=https%3A%2F%2Fcdn.jsdelivr.net%2Fgh%2Fbitmaks%2Fcm-web-fonts%40latest%2Ffont%2FSerif%2Fcmunrm.woff;" parent="1" vertex="1">
          <mxGeometry x="439" y="50" width="30" height="30" as="geometry" />
        </mxCell>
        <mxCell id="1o7OQgsqpj5E0O2IyzL--94" value="F" style="text;html=1;align=center;verticalAlign=middle;resizable=0;points=[];autosize=1;strokeColor=none;fillColor=none;fontFamily=CMU Serif;fontSource=https%3A%2F%2Fcdn.jsdelivr.net%2Fgh%2Fbitmaks%2Fcm-web-fonts%40latest%2Ffont%2FSerif%2Fcmunrm.woff;" parent="1" vertex="1">
          <mxGeometry x="519" y="50" width="30" height="30" as="geometry" />
        </mxCell>
        <mxCell id="1o7OQgsqpj5E0O2IyzL--95" value="G" style="text;html=1;align=center;verticalAlign=middle;resizable=0;points=[];autosize=1;strokeColor=none;fillColor=none;fontFamily=CMU Serif;fontSource=https%3A%2F%2Fcdn.jsdelivr.net%2Fgh%2Fbitmaks%2Fcm-web-fonts%40latest%2Ffont%2FSerif%2Fcmunrm.woff;" parent="1" vertex="1">
          <mxGeometry x="599" y="50" width="30" height="30" as="geometry" />
        </mxCell>
        <mxCell id="1o7OQgsqpj5E0O2IyzL--96" value="H" style="text;html=1;align=center;verticalAlign=middle;resizable=0;points=[];autosize=1;strokeColor=none;fillColor=none;fontFamily=CMU Serif;fontSource=https%3A%2F%2Fcdn.jsdelivr.net%2Fgh%2Fbitmaks%2Fcm-web-fonts%40latest%2Ffont%2FSerif%2Fcmunrm.woff;" parent="1" vertex="1">
          <mxGeometry x="679" y="50" width="30" height="30" as="geometry" />
        </mxCell>
        <mxCell id="1o7OQgsqpj5E0O2IyzL--97" value="" style="shape=image;verticalLabelPosition=bottom;labelBackgroundColor=default;verticalAlign=top;aspect=fixed;imageAspect=0;image=https://upload.wikimedia.org/wikipedia/commons/thumb/7/70/Chess_nlt45.svg/52px-Chess_nlt45.svg.png;imageBackground=none;fillStyle=hatch;imageBorder=#B9E0A5;strokeWidth=4;fontFamily=CMU Serif;fontSource=https%3A%2F%2Fcdn.jsdelivr.net%2Fgh%2Fbitmaks%2Fcm-web-fonts%40latest%2Ffont%2FSerif%2Fcmunrm.woff;" parent="1" vertex="1">
          <mxGeometry x="508" y="654" width="52" height="52" as="geometry" />
        </mxCell>
        <mxCell id="1o7OQgsqpj5E0O2IyzL--98" value="" style="shape=image;verticalLabelPosition=bottom;labelBackgroundColor=default;verticalAlign=top;aspect=fixed;imageAspect=0;image=https://upload.wikimedia.org/wikipedia/commons/thumb/e/ef/Chess_ndt45.svg/52px-Chess_ndt45.svg.png;imageBorder=#B9E0A5;strokeWidth=4;fontFamily=CMU Serif;fontSource=https%3A%2F%2Fcdn.jsdelivr.net%2Fgh%2Fbitmaks%2Fcm-web-fonts%40latest%2Ffont%2FSerif%2Fcmunrm.woff;imageBackground=default;" parent="1" vertex="1">
          <mxGeometry x="268" y="174" width="52" height="52" as="geometry" />
        </mxCell>
        <mxCell id="1o7OQgsqpj5E0O2IyzL--99" value="" style="shape=image;verticalLabelPosition=bottom;labelBackgroundColor=default;verticalAlign=top;aspect=fixed;imageAspect=0;image=https://upload.wikimedia.org/wikipedia/commons/thumb/7/70/Chess_nlt45.svg/52px-Chess_nlt45.svg.png;imageBackground=none;fillStyle=hatch;imageBorder=#B9E0A5;strokeWidth=4;fontFamily=CMU Serif;fontSource=https%3A%2F%2Fcdn.jsdelivr.net%2Fgh%2Fbitmaks%2Fcm-web-fonts%40latest%2Ffont%2FSerif%2Fcmunrm.woff;" parent="1" vertex="1">
          <mxGeometry x="428" y="494" width="52" height="52" as="geometry" />
        </mxCell>
        <mxCell id="1o7OQgsqpj5E0O2IyzL--100" value="" style="shape=image;verticalLabelPosition=bottom;labelBackgroundColor=default;verticalAlign=top;aspect=fixed;imageAspect=0;image=https://upload.wikimedia.org/wikipedia/commons/thumb/e/ef/Chess_ndt45.svg/52px-Chess_ndt45.svg.png;imageBorder=#B9E0A5;strokeWidth=4;imageBackground=default;fontFamily=CMU Serif;fontSource=https%3A%2F%2Fcdn.jsdelivr.net%2Fgh%2Fbitmaks%2Fcm-web-fonts%40latest%2Ffont%2FSerif%2Fcmunrm.woff;" parent="1" vertex="1">
          <mxGeometry x="348" y="334" width="52" height="52" as="geometry" />
        </mxCell>
        <mxCell id="1o7OQgsqpj5E0O2IyzL--103" value="" style="endArrow=classic;html=1;rounded=0;exitX=1;exitY=0.5;exitDx=0;exitDy=0;entryX=0;entryY=0.5;entryDx=0;entryDy=0;strokeColor=#EA6B66;strokeWidth=3;fontFamily=CMU Serif;fontSource=https%3A%2F%2Fcdn.jsdelivr.net%2Fgh%2Fbitmaks%2Fcm-web-fonts%40latest%2Ffont%2FSerif%2Fcmunrm.woff;" parent="1" source="1o7OQgsqpj5E0O2IyzL--113" target="1o7OQgsqpj5E0O2IyzL--102" edge="1">
          <mxGeometry width="50" height="50" relative="1" as="geometry">
            <mxPoint x="464" y="360" as="sourcePoint" />
            <mxPoint x="514" y="310" as="targetPoint" />
          </mxGeometry>
        </mxCell>
        <mxCell id="1o7OQgsqpj5E0O2IyzL--104" value="" style="endArrow=classic;html=1;rounded=0;exitX=0.5;exitY=1;exitDx=0;exitDy=0;entryX=0.5;entryY=0;entryDx=0;entryDy=0;strokeColor=#EA6B66;strokeWidth=3;fontFamily=CMU Serif;fontSource=https%3A%2F%2Fcdn.jsdelivr.net%2Fgh%2Fbitmaks%2Fcm-web-fonts%40latest%2Ffont%2FSerif%2Fcmunrm.woff;" parent="1" source="1o7OQgsqpj5E0O2IyzL--102" target="1o7OQgsqpj5E0O2IyzL--100" edge="1">
          <mxGeometry width="50" height="50" relative="1" as="geometry">
            <mxPoint x="360" y="279.65999999999997" as="sourcePoint" />
            <mxPoint x="394" y="279.65999999999997" as="targetPoint" />
          </mxGeometry>
        </mxCell>
        <mxCell id="1o7OQgsqpj5E0O2IyzL--107" value="" style="endArrow=classic;html=1;rounded=0;exitX=0;exitY=0.5;exitDx=0;exitDy=0;entryX=1;entryY=0.5;entryDx=0;entryDy=0;strokeColor=#EA6B66;strokeWidth=3;fontFamily=CMU Serif;fontSource=https%3A%2F%2Fcdn.jsdelivr.net%2Fgh%2Fbitmaks%2Fcm-web-fonts%40latest%2Ffont%2FSerif%2Fcmunrm.woff;" parent="1" source="1o7OQgsqpj5E0O2IyzL--111" target="1o7OQgsqpj5E0O2IyzL--106" edge="1">
          <mxGeometry width="50" height="50" relative="1" as="geometry">
            <mxPoint x="834" y="630" as="sourcePoint" />
            <mxPoint x="868" y="630" as="targetPoint" />
          </mxGeometry>
        </mxCell>
        <mxCell id="1o7OQgsqpj5E0O2IyzL--108" value="" style="endArrow=classic;html=1;rounded=0;exitX=0.5;exitY=0;exitDx=0;exitDy=0;entryX=0.5;entryY=1;entryDx=0;entryDy=0;strokeColor=#EA6B66;strokeWidth=3;fontFamily=CMU Serif;fontSource=https%3A%2F%2Fcdn.jsdelivr.net%2Fgh%2Fbitmaks%2Fcm-web-fonts%40latest%2Ffont%2FSerif%2Fcmunrm.woff;" parent="1" source="1o7OQgsqpj5E0O2IyzL--106" target="1o7OQgsqpj5E0O2IyzL--99" edge="1">
          <mxGeometry width="50" height="50" relative="1" as="geometry">
            <mxPoint x="518" y="690" as="sourcePoint" />
            <mxPoint x="484" y="690" as="targetPoint" />
          </mxGeometry>
        </mxCell>
        <mxCell id="1o7OQgsqpj5E0O2IyzL--110" value="-2" style="ellipse;whiteSpace=wrap;html=1;aspect=fixed;fontColor=#EA6B66;fontStyle=1;fontFamily=CMU Serif;fontSource=https%3A%2F%2Fcdn.jsdelivr.net%2Fgh%2Fbitmaks%2Fcm-web-fonts%40latest%2Ffont%2FSerif%2Fcmunrm.woff;" parent="1" vertex="1">
          <mxGeometry x="444" y="590" width="20" height="20" as="geometry" />
        </mxCell>
        <mxCell id="1o7OQgsqpj5E0O2IyzL--112" value="" style="endArrow=classic;html=1;rounded=0;exitX=0;exitY=0.5;exitDx=0;exitDy=0;entryX=1;entryY=0.5;entryDx=0;entryDy=0;strokeColor=#EA6B66;strokeWidth=3;fontFamily=CMU Serif;fontSource=https%3A%2F%2Fcdn.jsdelivr.net%2Fgh%2Fbitmaks%2Fcm-web-fonts%40latest%2Ffont%2FSerif%2Fcmunrm.woff;" parent="1" source="1o7OQgsqpj5E0O2IyzL--97" target="1o7OQgsqpj5E0O2IyzL--111" edge="1">
          <mxGeometry width="50" height="50" relative="1" as="geometry">
            <mxPoint x="508" y="680" as="sourcePoint" />
            <mxPoint x="474" y="680" as="targetPoint" />
          </mxGeometry>
        </mxCell>
        <mxCell id="1o7OQgsqpj5E0O2IyzL--111" value="+1" style="ellipse;whiteSpace=wrap;html=1;aspect=fixed;fontColor=#EA6B66;fontStyle=1;fontFamily=CMU Serif;fontSource=https%3A%2F%2Fcdn.jsdelivr.net%2Fgh%2Fbitmaks%2Fcm-web-fonts%40latest%2Ffont%2FSerif%2Fcmunrm.woff;" parent="1" vertex="1">
          <mxGeometry x="492" y="670" width="20" height="20" as="geometry" />
        </mxCell>
        <mxCell id="1o7OQgsqpj5E0O2IyzL--114" value="" style="endArrow=classic;html=1;rounded=0;exitX=1;exitY=0.5;exitDx=0;exitDy=0;entryX=0;entryY=0.5;entryDx=0;entryDy=0;strokeColor=#EA6B66;strokeWidth=3;fontFamily=CMU Serif;fontSource=https%3A%2F%2Fcdn.jsdelivr.net%2Fgh%2Fbitmaks%2Fcm-web-fonts%40latest%2Ffont%2FSerif%2Fcmunrm.woff;" parent="1" source="1o7OQgsqpj5E0O2IyzL--98" target="1o7OQgsqpj5E0O2IyzL--113" edge="1">
          <mxGeometry width="50" height="50" relative="1" as="geometry">
            <mxPoint x="320" y="200" as="sourcePoint" />
            <mxPoint x="354" y="200" as="targetPoint" />
          </mxGeometry>
        </mxCell>
        <mxCell id="1o7OQgsqpj5E0O2IyzL--113" value="-1" style="ellipse;whiteSpace=wrap;html=1;aspect=fixed;fontColor=#EA6B66;fontStyle=1;fontFamily=CMU Serif;fontSource=https%3A%2F%2Fcdn.jsdelivr.net%2Fgh%2Fbitmaks%2Fcm-web-fonts%40latest%2Ffont%2FSerif%2Fcmunrm.woff;" parent="1" vertex="1">
          <mxGeometry x="314" y="190" width="20" height="20" as="geometry" />
        </mxCell>
        <mxCell id="1o7OQgsqpj5E0O2IyzL--115" value="+2" style="ellipse;whiteSpace=wrap;html=1;aspect=fixed;fontColor=#EA6B66;fontStyle=1;fontFamily=CMU Serif;fontSource=https%3A%2F%2Fcdn.jsdelivr.net%2Fgh%2Fbitmaks%2Fcm-web-fonts%40latest%2Ffont%2FSerif%2Fcmunrm.woff;" parent="1" vertex="1">
          <mxGeometry x="364" y="270" width="20" height="20" as="geometry" />
        </mxCell>
        <mxCell id="1o7OQgsqpj5E0O2IyzL--124" value="&lt;div align=&quot;left&quot;&gt;&lt;font data-font-src=&quot;https://cdn.jsdelivr.net/gh/bitmaks/cm-web-fonts@latest/font/Serif/cmunrm.woff&quot; face=&quot;CMU Serif&quot;&gt;1. horizontal movement&lt;/font&gt;&lt;/div&gt;&lt;div align=&quot;left&quot;&gt;&lt;font data-font-src=&quot;https://cdn.jsdelivr.net/gh/bitmaks/cm-web-fonts@latest/font/Serif/cmunrm.woff&quot; face=&quot;CMU Serif&quot;&gt;2. vertical movement&lt;/font&gt;&lt;/div&gt;&lt;div align=&quot;left&quot;&gt;&lt;font style=&quot;color: rgb(234, 107, 102);&quot; face=&quot;Courier New&quot;&gt;&lt;b&gt;diff&lt;/b&gt; = currentField - newField&lt;/font&gt;&lt;/div&gt;&lt;div align=&quot;left&quot;&gt;&lt;b&gt;&lt;font style=&quot;color: rgb(255, 181, 112);&quot; face=&quot;CMU Serif&quot;&gt;current direction before and after movement&lt;/font&gt;&lt;font style=&quot;color: rgb(234, 107, 102);&quot; face=&quot;CMU Serif&quot;&gt;&lt;br&gt;&lt;/font&gt;&lt;/b&gt;&lt;/div&gt;" style="text;html=1;align=left;verticalAlign=middle;whiteSpace=wrap;rounded=0;fontSize=16;" parent="1" vertex="1">
          <mxGeometry x="246" y="772" width="336" height="89" as="geometry" />
        </mxCell>
        <mxCell id="1o7OQgsqpj5E0O2IyzL--126" value="" style="triangle;whiteSpace=wrap;html=1;rotation=90;fillColor=#FFB570;strokeColor=#FFB570;" parent="1" vertex="1">
          <mxGeometry x="288.37" y="218.5" width="9.25" height="29.5" as="geometry" />
        </mxCell>
        <mxCell id="1o7OQgsqpj5E0O2IyzL--128" value="" style="triangle;whiteSpace=wrap;html=1;rotation=90;fillColor=#FFB570;strokeColor=#FFB570;" parent="1" vertex="1">
          <mxGeometry x="369.38" y="379" width="9.25" height="29.5" as="geometry" />
        </mxCell>
        <mxCell id="1o7OQgsqpj5E0O2IyzL--129" value="" style="triangle;whiteSpace=wrap;html=1;rotation=270;fillColor=#FFB570;strokeColor=#FFB570;" parent="1" vertex="1">
          <mxGeometry x="449.38" y="472" width="9.25" height="29.5" as="geometry" />
        </mxCell>
        <mxCell id="1o7OQgsqpj5E0O2IyzL--130" value="" style="triangle;whiteSpace=wrap;html=1;rotation=270;fillColor=#FFB570;strokeColor=#FFB570;" parent="1" vertex="1">
          <mxGeometry x="529.38" y="631.5" width="9.25" height="29.5" as="geometry" />
        </mxCell>
        <mxCell id="jwrEH1x45uq6uNu4edKQ-1" value="" style="shape=image;html=1;verticalAlign=top;verticalLabelPosition=bottom;labelBackgroundColor=#ffffff;imageAspect=0;aspect=fixed;image=https://cdn2.iconfinder.com/data/icons/freecns-cumulus/32/519779-90_Compass-128.png;imageBackground=none;fontColor=#FFFFFF;rotation=315;" parent="1" vertex="1">
          <mxGeometry x="667.5" y="658" width="53" height="53" as="geometry" />
        </mxCell>
        <mxCell id="jwrEH1x45uq6uNu4edKQ-3" value="N" style="text;html=1;align=center;verticalAlign=middle;resizable=0;points=[];autosize=1;strokeColor=none;fillColor=none;fontFamily=CMU Serif;fontSource=https%3A%2F%2Fcdn.jsdelivr.net%2Fgh%2Fbitmaks%2Fcm-web-fonts%40latest%2Ffont%2FSerif%2Fcmunrm.woff;fontStyle=1;fontColor=#FF3333;" parent="1" vertex="1">
          <mxGeometry x="680.5" y="640" width="27" height="26" as="geometry" />
        </mxCell>
        <mxCell id="1o7OQgsqpj5E0O2IyzL--106" value="" style="ellipse;whiteSpace=wrap;html=1;aspect=fixed;fontFamily=CMU Serif;fontSource=https%3A%2F%2Fcdn.jsdelivr.net%2Fgh%2Fbitmaks%2Fcm-web-fonts%40latest%2Ffont%2FSerif%2Fcmunrm.woff;" parent="1" vertex="1">
          <mxGeometry x="434" y="660" width="40" height="40" as="geometry" />
        </mxCell>
        <mxCell id="jwrEH1x45uq6uNu4edKQ-4" value="D" style="text;html=1;align=center;verticalAlign=middle;resizable=0;points=[];autosize=1;strokeColor=none;fillColor=none;fontFamily=CMU Serif;fontSource=https%3A%2F%2Fcdn.jsdelivr.net%2Fgh%2Fbitmaks%2Fcm-web-fonts%40latest%2Ffont%2FSerif%2Fcmunrm.woff;fontStyle=2" parent="1" vertex="1">
          <mxGeometry x="439" y="668" width="27" height="26" as="geometry" />
        </mxCell>
        <mxCell id="1o7OQgsqpj5E0O2IyzL--102" value="" style="ellipse;whiteSpace=wrap;html=1;aspect=fixed;fontFamily=CMU Serif;fontSource=https%3A%2F%2Fcdn.jsdelivr.net%2Fgh%2Fbitmaks%2Fcm-web-fonts%40latest%2Ffont%2FSerif%2Fcmunrm.woff;" parent="1" vertex="1">
          <mxGeometry x="354" y="180" width="40" height="40" as="geometry" />
        </mxCell>
        <mxCell id="jwrEH1x45uq6uNu4edKQ-5" value="D" style="text;html=1;align=center;verticalAlign=middle;resizable=0;points=[];autosize=1;strokeColor=none;fillColor=none;fontFamily=CMU Serif;fontSource=https%3A%2F%2Fcdn.jsdelivr.net%2Fgh%2Fbitmaks%2Fcm-web-fonts%40latest%2Ffont%2FSerif%2Fcmunrm.woff;fontStyle=2" parent="1" vertex="1">
          <mxGeometry x="359.5" y="188" width="27" height="26" as="geometry" />
        </mxCell>
      </root>
    </mxGraphModel>
  </diagram>
</mxfile>
